<svg xmlns="http://www.w3.org/2000/svg" width="1200" height="720" viewBox="0 0 1200 720">
  <rect width="1200" height="720" fill="#0f1836"/>
  <rect x="26" y="26" width="1148" height="668" rx="14" fill="#142043" stroke="#3c58a8"/>
  <rect x="58" y="58" width="1084" height="604" rx="10" fill="#f8fbff"/>
  <text x="90" y="104" fill="#1a2c5a" font-size="34" font-family="Segoe UI, Arial" font-weight="700">Goods Receipt Note GRN-7752</text>
  <text x="90" y="132" fill="#51649a" font-size="17" font-family="Segoe UI, Arial">Linked PO: PO-4478 " Warehouse: WH-East-03 " Receiver: N. Patel</text>
  <rect x="90" y="152" width="282" height="34" rx="8" fill="#fff4db" stroke="#e7b647"/>
  <text x="104" y="174" fill="#7a4f00" font-size="15" font-family="Segoe UI, Arial" font-weight="700">Status: Partial Receipts Recorded</text>
  <rect x="90" y="210" width="1020" height="38" fill="#eaf1ff"/>
  <text x="102" y="235" fill="#344a82" font-size="15" font-family="Segoe UI, Arial" font-weight="700">Batch</text><text x="280" y="235" fill="#344a82" font-size="15" font-family="Segoe UI, Arial" font-weight="700">Receipt Date</text><text x="500" y="235" fill="#344a82" font-size="15" font-family="Segoe UI, Arial" font-weight="700">Accepted Qty</text><text x="700" y="235" fill="#344a82" font-size="15" font-family="Segoe UI, Arial" font-weight="700">Rejected Qty</text><text x="900" y="235" fill="#344a82" font-size="15" font-family="Segoe UI, Arial" font-weight="700">Notes</text>
  <rect x="90" y="248" width="1020" height="44" fill="#fff"/><rect x="90" y="292" width="1020" height="44" fill="#f7faff"/><rect x="90" y="336" width="1020" height="44" fill="#fff"/>
  <text x="102" y="276" fill="#223562" font-size="14" font-family="Segoe UI, Arial">R1</text><text x="280" y="276" fill="#223562" font-size="14" font-family="Segoe UI, Arial">2025-03-08</text><text x="510" y="276" fill="#223562" font-size="14" font-family="Segoe UI, Arial">180</text><text x="710" y="276" fill="#223562" font-size="14" font-family="Segoe UI, Arial">0</text><text x="900" y="276" fill="#223562" font-size="14" font-family="Segoe UI, Arial">Dock A complete</text>
  <text x="102" y="320" fill="#223562" font-size="14" font-family="Segoe UI, Arial">R2</text><text x="280" y="320" fill="#223562" font-size="14" font-family="Segoe UI, Arial">2025-03-10</text><text x="510" y="320" fill="#223562" font-size="14" font-family="Segoe UI, Arial">180</text><text x="710" y="320" fill="#223562" font-size="14" font-family="Segoe UI, Arial">0</text><text x="900" y="320" fill="#223562" font-size="14" font-family="Segoe UI, Arial">Dock B complete</text>
  <text x="102" y="364" fill="#223562" font-size="14" font-family="Segoe UI, Arial">R3</text><text x="280" y="364" fill="#223562" font-size="14" font-family="Segoe UI, Arial">2025-03-12</text><text x="510" y="364" fill="#223562" font-size="14" font-family="Segoe UI, Arial">0</text><text x="710" y="364" fill="#223562" font-size="14" font-family="Segoe UI, Arial">0</text><text x="900" y="364" fill="#223562" font-size="14" font-family="Segoe UI, Arial">No new cargo</text>
  <rect x="90" y="410" width="1020" height="200" rx="10" fill="#f4f7ff" stroke="#d5e0ff"/>
  <text x="110" y="445" fill="#344a82" font-size="16" font-family="Segoe UI, Arial" font-weight="700">Warehouse Log</text>
  <text x="110" y="474" fill="#51649a" font-size="14" font-family="Segoe UI, Arial">08:14  Dock A unloaded successfully</text>
  <text x="110" y="498" fill="#51649a" font-size="14" font-family="Segoe UI, Arial">11:39  Dock B unloaded successfully</text>
  <text x="110" y="522" fill="#51649a" font-size="14" font-family="Segoe UI, Arial">14:12  Pattern flag sent to AP risk controls</text>
  <text x="110" y="546" fill="#51649a" font-size="14" font-family="Segoe UI, Arial">16:05  Matched against dual invoice submission</text>
  <rect x="90" y="620" width="285" height="28" rx="14" fill="#e8f0ff" stroke="#8aa4e6"/>
  <text x="106" y="639" fill="#2d4684" font-size="13" font-family="Segoe UI, Arial" font-weight="700">Evidence Tag: inspect_goods_receipt_note</text>
</svg>
